<?xml version="1.0" encoding="utf-8"?>
<!-- Generator: Adobe Illustrator 24.0.2, SVG Export Plug-In . SVG Version: 6.00 Build 0)  -->
<svg version="1.1" id="Calque_1" xmlns="http://www.w3.org/2000/svg" xmlns:xlink="http://www.w3.org/1999/xlink" x="0px" y="0px"
	 viewBox="0 0 300 77.2" style="enable-background:new 0 0 300 77.2;" xml:space="preserve">
<title>Vulsoft</title>
<g>
	<polygon points="60.9,8.2 38.3,45.1 15.7,8.2 1.5,8.2 38.3,68.9 75.2,8.2 	"/>
	<polygon points="109.1,20 99.4,20 99.4,63.1 123.3,63.1 123.3,55.1 109.1,55.1 	"/>
	<path d="M86.2,43.3c0,5.3-4.3,9.6-9.6,9.6s-9.6-4.3-9.6-9.6l0,0V26.5l-9.5,16.7l-0.1,0.2v0.1c-0.1,10.5,8.3,19.2,18.8,19.3
		c10.5,0.1,19.2-8.3,19.3-18.8c0-0.3,0-0.5,0-0.8V20.1h-9.5V43.3z"/>
	<path d="M196.9,20.4c-11.8,0-21.3,9.6-21.3,21.4s9.6,21.3,21.4,21.3c11.8,0,21.3-9.6,21.3-21.3S208.7,20.4,196.9,20.4L196.9,20.4z
		 M196.9,54.7c-7.2,0-13-5.8-13-13s5.8-13,13-13s13,5.8,13,13S204.1,54.7,196.9,54.7z"/>
	<polygon points="253.8,20.2 221.2,20.2 221.2,62.9 230.4,62.9 230.4,46.7 253.8,46.7 253.8,46.7 253.8,38.3 253.8,38.3 230.4,38.3 
		230.4,28.2 253.8,28.2 272.4,28.2 272.4,62.1 281.3,62.1 281.3,28.4 294,28.4 298.5,20.2 	"/>
	<path d="M173,46c-0.6-1.7-1.5-3.2-2.7-4.5c-2.1-2.4-5.2-3.9-9.7-3.9h-17.7c-0.4,0-0.8,0-1.2-0.1c-0.4-0.1-0.8-0.3-1.1-0.5
		c0,0,0,0-0.1-0.1c-0.3-0.1-0.6-0.3-0.8-0.5c-0.7-0.7-1.1-1.6-1.1-2.6c0-0.4,0.1-0.9,0.2-1.3c0.2-0.4,0.4-0.8,0.7-1.2
		c0.7-0.7,1.8-1,2.8-0.9h23.9l5.6-10.3h-29.5c-5.4,0-8.4,1.5-10.5,3.9c-2.2,2.5-3.5,5.7-3.4,9c0,0.1,0,0.3,0,0.4
		c0,0.7,0.1,1.4,0.2,2.1c0.1,0.7,0.3,1.3,0.5,1.9c0.6,1.7,1.5,3.2,2.7,4.5c2.1,2.4,5.2,3.9,10.6,3.9h16.3c0.3,0,0.7,0,1,0.1
		c0.5,0,1,0.2,1.4,0.5c0.7,0.1,1.4,0.4,1.9,1c0.1,0.1,0.2,0.3,0.3,0.4c0.4,0.6,0.6,1.4,0.6,2.1c0,0.6-0.1,1.1-0.4,1.6
		c-0.1,0.2-0.2,0.4-0.4,0.6c-0.6,0.8-1.5,1.2-3.4,1.2h-24.1l-8.2,9.9h33c4.8,0,8-1.7,10.2-4.5c1.9-2.3,2.9-5.2,3-8.2
		c0-0.1,0-0.2,0-0.2c0-0.8-0.1-1.7-0.2-2.5C173.4,47.2,173.2,46.6,173,46z"/>
</g>
</svg>
