<svg id="Calque_1" data-name="Calque 1" xmlns="http://www.w3.org/2000/svg" viewBox="0 0 300 77.19"><title>Vulsoft</title><polygon points="60.94 8.24 38.34 45.08 15.73 8.24 1.5 8.24 38.34 68.94 75.17 8.24 60.94 8.24"/><polygon points="109.08 20.04 99.45 20.04 99.45 63.08 123.31 63.08 123.31 55.06 109.08 55.06 109.08 20.04"/><path d="M86.21,43.28a9.57,9.57,0,1,1-19.14,0V26.54L57.62,43.27l-.06.18v.14a19.09,19.09,0,1,0,38.17-.31V20.06H86.21Z"/><path d="M196.94,20.38a21.35,21.35,0,1,0,21.35,21.35A21.35,21.35,0,0,0,196.94,20.38Zm0,34.33a13,13,0,1,1,13-13A13,13,0,0,1,196.94,54.71Z"/><polygon points="253.8 20.19 221.18 20.19 221.18 62.87 230.39 62.87 230.39 46.68 253.8 46.68 253.84 46.68 253.84 38.27 253.8 38.27 230.39 38.27 230.39 28.18 253.8 28.18 272.42 28.18 272.42 62.1 281.3 62.1 281.3 28.35 293.99 28.35 298.5 20.19 253.8 20.19"/><path d="M173,46a13.6,13.6,0,0,0-2.69-4.54c-2.14-2.36-5.17-3.89-9.69-3.89H142.94a6.44,6.44,0,0,1-1.18-.09,2.15,2.15,0,0,1-1.13-.55s0-.05-.07-.07a2.12,2.12,0,0,1-.78-.47,3.55,3.55,0,0,1-1.12-2.56,4.06,4.06,0,0,1,.22-1.32,3.43,3.43,0,0,1,.7-1.16,3.5,3.5,0,0,1,2.78-.92h23.85l5.62-10.29H142.35c-5.35,0-8.38,1.53-10.52,3.89a13.43,13.43,0,0,0-3.45,9c0,.13,0,.27,0,.4a14.35,14.35,0,0,0,.22,2.11,13.66,13.66,0,0,0,.5,1.93A12.74,12.74,0,0,0,131.77,42c2.14,2.36,5.23,3.89,10.58,3.89H158.7a7,7,0,0,1,1,.07,3.08,3.08,0,0,1,1.42.48,2.88,2.88,0,0,1,1.93,1,2.67,2.67,0,0,1,.32.43A3.91,3.91,0,0,1,164,50a3.75,3.75,0,0,1-.37,1.62,3.5,3.5,0,0,1-.36.58c-.59.78-1.52,1.2-3.37,1.2H135.8l-8.24,9.89h33c4.75,0,8-1.72,10.16-4.47a13.59,13.59,0,0,0,3-8.19c0-.08,0-.16,0-.24a13.21,13.21,0,0,0-.25-2.52A13.37,13.37,0,0,0,173,46Z"/></svg>